<?xml version="1.0" encoding="utf-8"?>
<!-- Generator: Adobe Illustrator 25.0.1, SVG Export Plug-In . SVG Version: 6.00 Build 0)  -->
<svg version="1.1" id="Laag_1" xmlns="http://www.w3.org/2000/svg" xmlns:xlink="http://www.w3.org/1999/xlink" x="0px" y="0px"
	 viewBox="0 0 128 128" style="enable-background:new 0 0 128 128;" xml:space="preserve">
<style type="text/css">
	.st0{fill:#FFFFFF;}
</style>
<g>
	<path class="st0" d="M76.27,30.55c-9.77,0-16.28,6.37-19.54,19.12H90.8l-4.33,10.04H55.19l-0.14,5.87h29.73l-4.33,10.04H56.17
		c2.98,14.7,9.86,22.06,20.67,22.06c6.98,0,14.14-2.93,21.5-8.79l-0.14,21.07c-6.24,3.64-13.4,5.45-21.5,5.45
		c-11.73,0-21.18-3.77-28.35-11.32c-6.52-6.8-10.75-16.28-12.7-28.47H24.9l4.33-10.04h5.59v-3.63c0-1.31,0.05-2.05,0.14-2.24H24.76
		l4.32-10.04h7.12c2.23-11.25,6.84-20.14,13.82-26.66c7.35-7.08,16.56-10.61,27.64-10.61c7.82,0,16.28,2.33,25.41,6.99l-8.52,17.45
		C88.04,32.65,81.94,30.55,76.27,30.55z"/>
</g>
</svg>
