<?xml version="1.0" encoding="utf-8"?>
<!-- Generator: Adobe Illustrator 25.0.1, SVG Export Plug-In . SVG Version: 6.00 Build 0)  -->
<svg version="1.1" id="Laag_1" xmlns="http://www.w3.org/2000/svg" xmlns:xlink="http://www.w3.org/1999/xlink" x="0px" y="0px"
	 viewBox="0 0 128 128" style="enable-background:new 0 0 128 128;" xml:space="preserve">
<style type="text/css">
	.st0{fill:#FFFFFF;}
</style>
<path class="st0" d="M109.16,33.86c-3.3-8.95-6.87-17.75-10.31-26.6c-0.04-0.09-0.13-0.16-0.19-0.23c-0.34,0-0.68,0-1.17,0
	c-0.14,0.4-0.28,0.85-0.45,1.29c-0.4,1.02-0.84,2.02-1.24,3.04c-0.75,1.95-1.47,3.91-2.24,5.85c-0.9,2.28-1.87,4.53-2.74,6.82
	c-0.99,2.58-1.92,5.18-2.99,7.74c-0.35,0.83-0.72,1.68-0.4,2.76l3.24,1.51V57.1h-5.57c-0.77-1.44-1.41-2.95-2.32-4.29
	c-1.67-2.45-2.89-5.15-4.5-7.63c-1.09-1.67-1.84-3.54-2.92-5.21c-1.24-1.91-2.31-3.9-3.42-5.87c-1.11-1.96-2.2-3.94-3.32-5.89
	c-1.21-2.1-2.46-4.17-3.66-6.28c-0.44-0.78-0.94-1.54-1.43-2.33c-0.39,0-0.77,0-1.13,0c-0.68,1.24-1.34,2.49-2.06,3.71
	c-1.01,1.73-2.1,3.42-3.1,5.15c-0.65,1.13-1.1,2.39-1.83,3.47c-1.58,2.32-2.93,4.78-4.3,7.21c-1.64,2.9-3.38,5.74-4.9,8.71
	c-0.47,0.92-1.33,2.36-1.89,3.23c-1.09,1.68-1.97,3.47-3.02,5.16c-0.19,0.31-0.34,0.64-0.45,0.83c-1.9,0-3.63,0-5.33,0V35.89
	c1.31-0.45,2.63-0.78,3.39-2.19c-0.31-0.75-0.67-1.56-0.99-2.39c-0.87-2.28-1.8-4.55-2.62-6.85c-0.86-2.4-1.87-4.74-2.86-7.09
	c-0.73-1.75-1.29-3.56-2.05-5.3c-0.46-1.05-0.73-2.18-1.12-3.26c-0.16-0.44-0.35-0.88-0.61-1.27c-0.29-0.44-0.69-0.74-1.42-0.35
	c-0.38,0.85-0.88,1.81-1.24,2.82c-0.8,2.26-1.62,4.52-2.56,6.73c-1.24,2.9-2.21,5.9-3.53,8.78c-0.6,1.31-1.01,2.74-1.5,4.12
	c-0.5,1.43-1.07,2.83-1.6,4.23c0.86,1.38,2.37,1.56,3.73,2.1c0,0.54,0,1.1,0,1.66c0,25.34,0,50.68,0,76.03
	c0,0.34,0.01,1.01,0.01,1.01v0c-0.14,2.43,1.79,4.48,4.23,4.47l0.22,0c0,0,15.56,0,23.46-0.01c0.31,0,0.62-0.15,0.93-0.19
	c1.35-0.19,2.2-1.09,3.12-2.18c0.07-0.84,0.21-1.81,0.22-2.78c0.03-2.88-0.03-5.76,0.03-8.63c0.02-1.05,0.33-2.02,0.94-3
	c1.29-2.09,2.78-4.03,4.14-6.06c1.31-1.96,2.7-3.85,4.06-5.77c0.3-0.42,0.6-0.84,0.98-1.37c0.5,0.5,0.96,0.84,1.27,1.29
	c1.08,1.57,2.08,3.21,3.17,4.78c1.47,2.11,3.01,4.17,4.5,6.27c0.75,1.06,1.3,2.16,1.27,3.55c-0.07,3.22-0.14,6.44,0.01,9.65
	c0.11,2.45,2.15,4.4,4.61,4.43c7.45,0.12,14.91,0.05,22.36,0.03c1.72,0,4.46-1.18,5.19-3.77c0.2-0.73,0.36-1.45,0.36-2.23
	c-0.02-25.17-0.02-50.35-0.02-75.52c0-0.56,0-1.11,0-1.65c0.63-0.26,1.2-0.56,1.79-0.73C108.2,35.01,108.51,34.33,109.16,33.86z"/>
</svg>
