<?xml version="1.0" encoding="utf-8"?>
<!-- Generator: Adobe Illustrator 25.0.1, SVG Export Plug-In . SVG Version: 6.00 Build 0)  -->
<svg version="1.1" id="Laag_1" xmlns="http://www.w3.org/2000/svg" xmlns:xlink="http://www.w3.org/1999/xlink" x="0px" y="0px"
	 viewBox="0 0 128 128" style="enable-background:new 0 0 128 128;" xml:space="preserve">
<style type="text/css">
	.st0{fill:#FFFFFF;}
</style>
<g id="product__x26__handel">
	<path class="st0" d="M26.18,18H10.95c-2.1,0-3.81,1.71-3.81,3.81v15.23c0,2.1,1.71,3.81,3.81,3.81s3.81-1.71,3.81-3.81V25.61h11.42
		c2.1,0,3.81-1.71,3.81-3.81S28.28,18,26.18,18z"/>
	<path class="st0" d="M117.54,86.52c-2.1,0-3.81,1.71-3.81,3.81v11.42h-11.42c-2.1,0-3.81,1.71-3.81,3.81s1.71,3.81,3.81,3.81h15.23
		c2.1,0,3.81-1.71,3.81-3.81V90.33C121.34,88.22,119.64,86.52,117.54,86.52z"/>
	<path class="st0" d="M117.54,18h-15.23c-2.1,0-3.81,1.71-3.81,3.81s1.71,3.81,3.81,3.81h11.42v11.42c0,2.1,1.71,3.81,3.81,3.81
		s3.81-1.71,3.81-3.81V21.81C121.34,19.71,119.64,18,117.54,18z"/>
	<path class="st0" d="M26.18,101.75H14.76V90.33c0-2.1-1.71-3.81-3.81-3.81s-3.81,1.71-3.81,3.81v15.23c0,2.1,1.71,3.81,3.81,3.81
		h15.23c2.1,0,3.81-1.71,3.81-3.81S28.28,101.75,26.18,101.75z"/>
	<rect x="22.37" y="33.23" class="st0" width="7.61" height="60.91"/>
	<rect x="37.6" y="33.23" class="st0" width="7.61" height="45.68"/>
	<rect x="52.82" y="33.23" class="st0" width="7.61" height="45.68"/>
	<rect x="68.05" y="33.23" class="st0" width="7.61" height="60.91"/>
	<rect x="83.28" y="33.23" class="st0" width="7.61" height="45.68"/>
	<rect x="98.5" y="33.23" class="st0" width="7.61" height="60.91"/>
	<rect x="37.6" y="86.52" class="st0" width="7.61" height="7.61"/>
	<rect x="52.82" y="86.52" class="st0" width="7.61" height="7.61"/>
	<rect x="83.28" y="86.52" class="st0" width="7.61" height="7.61"/>
</g>
</svg>
