<?xml version="1.0" encoding="utf-8"?>
<!-- Generator: Adobe Illustrator 25.0.1, SVG Export Plug-In . SVG Version: 6.00 Build 0)  -->
<svg version="1.1" id="Laag_1" xmlns="http://www.w3.org/2000/svg" xmlns:xlink="http://www.w3.org/1999/xlink" x="0px" y="0px"
	 viewBox="0 0 128 128" style="enable-background:new 0 0 128 128;" xml:space="preserve">
<style type="text/css">
	.st0{fill:#FFFFFF;}
</style>
<g id="Laag_2_1_">
	<path class="st0" d="M105.88,68.29h-9.06c0.92,2.53,1.43,5.25,1.43,8.1v34.23c0,1.19-0.21,2.32-0.58,3.38h14.97
		c5.59,0,10.14-4.55,10.14-10.14V85.2C122.79,75.88,115.2,68.29,105.88,68.29z"/>
	<path class="st0" d="M30.21,110.62V76.39c0-2.84,0.5-5.57,1.43-8.1h-9.06c-9.32,0-16.9,7.58-16.9,16.9v18.66
		c0,5.59,4.55,10.14,10.14,10.14H30.8C30.42,112.94,30.21,111.8,30.21,110.62z"/>
	<path class="st0" d="M40.36,114h47.75c1.87,0,3.38-1.51,3.38-3.38V76.39c0-9.32-7.58-16.9-16.9-16.9h-20.7
		c-9.32,0-16.9,7.58-16.9,16.9v34.23C36.98,112.49,38.49,114,40.36,114z"/>
	<path class="st0" d="M74.17,52.72c6.2-3.49,10.39-10.13,10.39-17.73c0-11.21-9.12-20.33-20.33-20.33S43.9,23.78,43.9,34.99
		c0,7.6,4.2,14.24,10.39,17.73c2.94,1.65,6.33,2.6,9.94,2.6S71.23,54.38,74.17,52.72z"/>
	<path class="st0" d="M41.95,55.96c1.14-2.13,1.79-4.56,1.79-7.14c0-8.38-6.82-15.2-15.2-15.2s-15.2,6.82-15.2,15.2
		s6.82,15.2,15.2,15.2c2.13,0,4.15-0.44,5.99-1.23C37.71,61.42,40.33,58.99,41.95,55.96z"/>
	<path class="st0" d="M93.94,62.79c1.84,0.79,3.86,1.23,5.99,1.23c8.38,0,15.2-6.82,15.2-15.2s-6.82-15.2-15.2-15.2
		s-15.2,6.82-15.2,15.2c0,2.58,0.65,5.01,1.79,7.14C88.14,58.99,90.76,61.42,93.94,62.79z"/>
</g>
</svg>
