<?xml version="1.0" encoding="utf-8"?>
<!-- Generator: Adobe Illustrator 25.0.1, SVG Export Plug-In . SVG Version: 6.00 Build 0)  -->
<svg version="1.1" id="Laag_1" xmlns="http://www.w3.org/2000/svg" xmlns:xlink="http://www.w3.org/1999/xlink" x="0px" y="0px"
	 viewBox="0 0 128 128" style="enable-background:new 0 0 128 128;" xml:space="preserve">
<style type="text/css">
	.st0{clip-path:url(#SVGID_2_);fill:#FFFFFF;}
	.st1{fill:#FFFFFF;}
</style>
<g id="werk__x26__loon">
	<g>
		<g>
			<g>
				<defs>
					<rect id="SVGID_1_" x="9.91" y="19" width="107.23" height="89.36"/>
				</defs>
				<clipPath id="SVGID_2_">
					<use xlink:href="#SVGID_1_"  style="overflow:visible;"/>
				</clipPath>
				<path class="st0" d="M76.93,39.11c-2.47,0-4.47-2-4.47-4.47v-6.7H54.59v6.7c0,2.47-2,4.47-4.47,4.47s-4.47-2-4.47-4.47v-6.7
					c0-4.93,4.01-8.94,8.94-8.94h17.87c4.93,0,8.94,4.01,8.94,8.94v6.7C81.4,37.1,79.4,39.11,76.93,39.11L76.93,39.11z"/>
			</g>
		</g>
		<path class="st1" d="M66.7,78.78c-0.8,0.31-1.97,0.54-3.17,0.54c-1.21,0-2.37-0.22-3.44-0.62L9.91,61.98v34.09
			c0,6.79,5.5,12.29,12.29,12.29h82.66c6.79,0,12.29-5.5,12.29-12.29V61.98L66.7,78.78z"/>
		<path class="st1" d="M117.14,44.69v10.23L64.6,72.44c-0.36,0.13-0.71,0.18-1.07,0.18s-0.71-0.04-1.07-0.18L9.91,54.92V44.69
			c0-6.79,5.5-12.29,12.29-12.29h82.66C111.65,32.4,117.14,37.9,117.14,44.69L117.14,44.69z"/>
	</g>
</g>
</svg>
